<svg width="146" height="161" viewBox="0 0 146 161" fill="none" xmlns="http://www.w3.org/2000/svg">
<g filter="url(#filter0_d)">
<circle cx="72.5" cy="35.5" r="35.5" fill="#D96704"/>
<circle cx="72.5" cy="35.5" r="34.5" stroke="white" stroke-width="2"/>
</g>
<g filter="url(#filter1_d)">
<path d="M39 64.5L6 152H140.5L124.5 108.25L108.5 64.5C81.5 93.5 53 80.6667 39 64.5Z" fill="#D96704"/>
<path d="M39 64.5L6 152H140.5L124.5 108.25L108.5 64.5C81.5 93.5 53 80.6667 39 64.5Z" stroke="white" stroke-width="2"/>
</g>
<path d="M56.8756 95.3C57.0923 95.3 57.2673 95.375 57.4006 95.525C57.5506 95.6583 57.6256 95.8333 57.6256 96.05V103.1C57.6256 104.733 57.1673 105.992 56.2506 106.875C55.3339 107.742 54.0673 108.175 52.4506 108.175C50.8506 108.175 49.5923 107.742 48.6756 106.875C47.7756 105.992 47.3256 104.733 47.3256 103.1V96.05C47.3256 95.8333 47.3923 95.6583 47.5256 95.525C47.6756 95.375 47.8589 95.3 48.0756 95.3C48.2923 95.3 48.4673 95.375 48.6006 95.525C48.7506 95.6583 48.8256 95.8333 48.8256 96.05V103.1C48.8256 104.3 49.1423 105.217 49.7756 105.85C50.4089 106.467 51.3006 106.775 52.4506 106.775C53.6173 106.775 54.5173 106.467 55.1506 105.85C55.8006 105.217 56.1256 104.3 56.1256 103.1V96.05C56.1256 95.8333 56.1923 95.6583 56.3256 95.525C56.4756 95.375 56.6589 95.3 56.8756 95.3ZM60.834 105.975C60.7007 105.758 60.634 105.575 60.634 105.425C60.634 105.208 60.7423 105.042 60.959 104.925C61.059 104.825 61.1923 104.775 61.359 104.775C61.559 104.775 61.7423 104.858 61.909 105.025C62.8923 106.325 64.2007 106.975 65.834 106.975C66.634 106.975 67.3257 106.792 67.909 106.425C68.509 106.042 68.809 105.492 68.809 104.775C68.809 104.075 68.534 103.55 67.984 103.2C67.434 102.85 66.6673 102.55 65.684 102.3C64.3007 101.95 63.2173 101.5 62.434 100.95C61.6507 100.383 61.259 99.5583 61.259 98.475C61.259 97.7917 61.4507 97.1833 61.834 96.65C62.2173 96.1 62.734 95.675 63.384 95.375C64.0507 95.075 64.8007 94.925 65.634 94.925C66.3507 94.925 67.0673 95.0667 67.784 95.35C68.5173 95.6167 69.1423 96.05 69.659 96.65C69.809 96.7667 69.884 96.9333 69.884 97.15C69.884 97.35 69.8007 97.525 69.634 97.675C69.5173 97.775 69.3673 97.825 69.184 97.825C69.0173 97.825 68.8673 97.7583 68.734 97.625C68.334 97.175 67.859 96.8333 67.309 96.6C66.759 96.3667 66.1673 96.25 65.534 96.25C64.7507 96.25 64.0757 96.4333 63.509 96.8C62.959 97.1667 62.684 97.7167 62.684 98.45C62.7173 99.1167 63.0173 99.625 63.584 99.975C64.1673 100.325 65.0173 100.642 66.134 100.925C67.0007 101.142 67.7173 101.383 68.284 101.65C68.8507 101.917 69.309 102.292 69.659 102.775C70.0257 103.258 70.209 103.9 70.209 104.7C70.209 105.783 69.7757 106.65 68.909 107.3C68.0423 107.933 66.9673 108.25 65.684 108.25C63.6507 108.25 62.034 107.492 60.834 105.975ZM84.0777 100.875C84.0777 101.075 84.0027 101.25 83.8527 101.4C83.7027 101.533 83.5277 101.6 83.3277 101.6H73.8777C73.8777 102.6 74.0777 103.5 74.4777 104.3C74.8944 105.083 75.4777 105.708 76.2277 106.175C76.9944 106.625 77.8944 106.85 78.9277 106.85C79.7277 106.85 80.4444 106.683 81.0777 106.35C81.7111 106.017 82.2194 105.592 82.6027 105.075C82.7861 104.925 82.9611 104.85 83.1277 104.85C83.2944 104.85 83.4444 104.917 83.5777 105.05C83.7111 105.183 83.7777 105.333 83.7777 105.5C83.7777 105.683 83.6944 105.858 83.5277 106.025C82.9944 106.675 82.3194 107.208 81.5027 107.625C80.7027 108.042 79.8527 108.25 78.9527 108.25C77.6694 108.25 76.5361 107.975 75.5527 107.425C74.5694 106.875 73.8027 106.108 73.2527 105.125C72.7027 104.125 72.4277 102.975 72.4277 101.675C72.4277 100.308 72.6944 99.1167 73.2277 98.1C73.7777 97.0667 74.5027 96.2833 75.4027 95.75C76.3027 95.2 77.2611 94.925 78.2777 94.925C79.2777 94.925 80.2111 95.1583 81.0777 95.625C81.9611 96.0917 82.6777 96.775 83.2277 97.675C83.7777 98.575 84.0611 99.6417 84.0777 100.875ZM78.2777 96.375C77.3111 96.375 76.4111 96.7083 75.5777 97.375C74.7611 98.0417 74.2361 99 74.0027 100.25H82.5277V100.05C82.4444 99.3 82.1944 98.65 81.7777 98.1C81.3611 97.5333 80.8361 97.1083 80.2027 96.825C79.5861 96.525 78.9444 96.375 78.2777 96.375ZM93.1443 94.925C93.4777 94.925 93.7777 94.9917 94.0443 95.125C94.311 95.2583 94.4443 95.4583 94.4443 95.725C94.4443 95.9583 94.3777 96.15 94.2443 96.3C94.111 96.4333 93.9527 96.5 93.7693 96.5C93.686 96.5 93.5193 96.4583 93.2693 96.375C93.036 96.2917 92.811 96.25 92.5943 96.25C91.9777 96.25 91.361 96.4917 90.7443 96.975C90.1443 97.4417 89.6443 98.05 89.2443 98.8C88.861 99.55 88.6693 100.308 88.6693 101.075V107.25C88.6693 107.467 88.5943 107.65 88.4443 107.8C88.311 107.933 88.136 108 87.9193 108C87.7027 108 87.5193 107.933 87.3693 107.8C87.236 107.65 87.1693 107.467 87.1693 107.25V96.05C87.1693 95.8333 87.236 95.6583 87.3693 95.525C87.5193 95.375 87.7027 95.3 87.9193 95.3C88.136 95.3 88.311 95.375 88.4443 95.525C88.5943 95.6583 88.6693 95.8333 88.6693 96.05V98.25C89.0527 97.3 89.6277 96.5167 90.3943 95.9C91.1777 95.2667 92.0943 94.9417 93.1443 94.925ZM45.2707 126.125C46.3707 126.125 47.3707 126.408 48.2707 126.975C49.1707 127.525 49.8707 128.3 50.3707 129.3C50.8874 130.283 51.1457 131.392 51.1457 132.625C51.1457 133.875 50.8874 135 50.3707 136C49.8707 136.983 49.1707 137.758 48.2707 138.325C47.3874 138.892 46.3957 139.175 45.2957 139.175C44.329 139.175 43.4374 138.95 42.6207 138.5C41.8207 138.033 41.179 137.417 40.6957 136.65V143.25C40.6957 143.467 40.6207 143.642 40.4707 143.775C40.3374 143.925 40.1624 144 39.9457 144C39.729 144 39.5457 143.925 39.3957 143.775C39.2624 143.642 39.1957 143.467 39.1957 143.25V126.95C39.1957 126.733 39.2624 126.55 39.3957 126.4C39.5457 126.25 39.729 126.175 39.9457 126.175C40.1624 126.175 40.3374 126.25 40.4707 126.4C40.6207 126.55 40.6957 126.733 40.6957 126.95V128.65C41.129 127.867 41.754 127.25 42.5707 126.8C43.3874 126.35 44.2874 126.125 45.2707 126.125ZM45.1457 137.775C46.0124 137.775 46.7874 137.558 47.4707 137.125C48.1707 136.675 48.7124 136.058 49.0957 135.275C49.4957 134.492 49.6957 133.608 49.6957 132.625C49.6957 131.658 49.4957 130.792 49.0957 130.025C48.7124 129.242 48.1707 128.633 47.4707 128.2C46.7874 127.75 46.0124 127.525 45.1457 127.525C44.2624 127.525 43.4707 127.742 42.7707 128.175C42.0707 128.608 41.529 129.217 41.1457 130C40.7624 130.767 40.5707 131.642 40.5707 132.625C40.5707 133.608 40.7624 134.492 41.1457 135.275C41.529 136.058 42.0707 136.675 42.7707 137.125C43.4707 137.558 44.2624 137.775 45.1457 137.775ZM60.2098 125.925C60.5431 125.925 60.8431 125.992 61.1098 126.125C61.3764 126.258 61.5098 126.458 61.5098 126.725C61.5098 126.958 61.4431 127.15 61.3098 127.3C61.1764 127.433 61.0181 127.5 60.8348 127.5C60.7514 127.5 60.5848 127.458 60.3348 127.375C60.1014 127.292 59.8764 127.25 59.6598 127.25C59.0431 127.25 58.4264 127.492 57.8098 127.975C57.2098 128.442 56.7098 129.05 56.3098 129.8C55.9264 130.55 55.7348 131.308 55.7348 132.075V138.25C55.7348 138.467 55.6598 138.65 55.5098 138.8C55.3764 138.933 55.2014 139 54.9848 139C54.7681 139 54.5848 138.933 54.4348 138.8C54.3014 138.65 54.2348 138.467 54.2348 138.25V127.05C54.2348 126.833 54.3014 126.658 54.4348 126.525C54.5848 126.375 54.7681 126.3 54.9848 126.3C55.2014 126.3 55.3764 126.375 55.5098 126.525C55.6598 126.658 55.7348 126.833 55.7348 127.05V129.25C56.1181 128.3 56.6931 127.517 57.4598 126.9C58.2431 126.267 59.1598 125.942 60.2098 125.925ZM75.0924 132.6C75.0924 133.85 74.8174 134.983 74.2674 136C73.7174 137.017 72.959 137.817 71.9924 138.4C71.0257 138.967 69.9507 139.25 68.7674 139.25C67.584 139.25 66.509 138.967 65.5424 138.4C64.5757 137.817 63.8174 137.017 63.2674 136C62.7174 134.983 62.4424 133.85 62.4424 132.6C62.4424 131.35 62.7174 130.217 63.2674 129.2C63.8174 128.183 64.5757 127.383 65.5424 126.8C66.509 126.217 67.584 125.925 68.7674 125.925C69.9507 125.925 71.0257 126.217 71.9924 126.8C72.959 127.383 73.7174 128.183 74.2674 129.2C74.8174 130.217 75.0924 131.35 75.0924 132.6ZM73.5924 132.6C73.5924 131.6 73.3841 130.7 72.9674 129.9C72.5507 129.1 71.9674 128.475 71.2174 128.025C70.4841 127.558 69.6674 127.325 68.7674 127.325C67.8674 127.325 67.0507 127.558 66.3174 128.025C65.584 128.475 65.0007 129.1 64.5674 129.9C64.1507 130.7 63.9424 131.6 63.9424 132.6C63.9424 133.583 64.1507 134.475 64.5674 135.275C65.0007 136.075 65.584 136.708 66.3174 137.175C67.0507 137.625 67.8674 137.85 68.7674 137.85C69.6674 137.85 70.4841 137.625 71.2174 137.175C71.9674 136.725 72.5507 136.1 72.9674 135.3C73.3841 134.5 73.5924 133.6 73.5924 132.6ZM82.6105 121.925C82.0772 121.925 81.6605 122.1 81.3605 122.45C81.0772 122.8 80.9355 123.283 80.9355 123.9V126.475H83.7355C83.9189 126.475 84.0772 126.542 84.2105 126.675C84.3605 126.808 84.4355 126.975 84.4355 127.175C84.4355 127.375 84.3605 127.542 84.2105 127.675C84.0772 127.808 83.9189 127.875 83.7355 127.875H80.9355V138.25C80.9355 138.467 80.8605 138.65 80.7105 138.8C80.5772 138.933 80.4022 139 80.1855 139C79.9689 139 79.7855 138.933 79.6355 138.8C79.5022 138.65 79.4355 138.467 79.4355 138.25V127.875H77.6105C77.4105 127.875 77.2439 127.808 77.1105 127.675C76.9772 127.525 76.9105 127.358 76.9105 127.175C76.9105 126.958 76.9772 126.792 77.1105 126.675C77.2439 126.542 77.4105 126.475 77.6105 126.475H79.4355V123.9C79.4355 122.85 79.7355 122.042 80.3355 121.475C80.9522 120.892 81.7689 120.6 82.7855 120.6C83.2522 120.6 83.6855 120.675 84.0855 120.825C84.4855 120.958 84.6855 121.183 84.6855 121.5C84.6855 121.7 84.6189 121.867 84.4855 122C84.3522 122.133 84.2022 122.2 84.0355 122.2C83.8855 122.2 83.7022 122.158 83.4855 122.075C83.1189 121.975 82.8272 121.925 82.6105 121.925ZM88.4355 138.25C88.4355 138.467 88.3605 138.65 88.2105 138.8C88.0772 138.933 87.9022 139 87.6855 139C87.4689 139 87.2855 138.933 87.1355 138.8C87.0022 138.65 86.9355 138.467 86.9355 138.25V126.75C86.9355 126.533 87.0022 126.358 87.1355 126.225C87.2855 126.075 87.4689 126 87.6855 126C87.9022 126 88.0772 126.075 88.2105 126.225C88.3605 126.358 88.4355 126.533 88.4355 126.75V138.25ZM87.6855 124.325C87.3522 124.325 87.0939 124.25 86.9105 124.1C86.7272 123.933 86.6355 123.7 86.6355 123.4V123.15C86.6355 122.85 86.7272 122.625 86.9105 122.475C87.1105 122.308 87.3772 122.225 87.7105 122.225C88.3772 122.225 88.7105 122.533 88.7105 123.15V123.4C88.7105 123.7 88.6189 123.933 88.4355 124.1C88.2689 124.25 88.0189 124.325 87.6855 124.325ZM93.9951 138.25C93.9951 138.467 93.9201 138.65 93.7701 138.8C93.6368 138.933 93.4618 139 93.2451 139C93.0285 139 92.8451 138.933 92.6951 138.8C92.5618 138.65 92.4951 138.467 92.4951 138.25V121.25C92.4951 121.033 92.5618 120.858 92.6951 120.725C92.8451 120.575 93.0285 120.5 93.2451 120.5C93.4618 120.5 93.6368 120.575 93.7701 120.725C93.9201 120.858 93.9951 121.033 93.9951 121.25V138.25ZM108.663 131.875C108.663 132.075 108.588 132.25 108.438 132.4C108.288 132.533 108.113 132.6 107.913 132.6H98.4627C98.4627 133.6 98.6627 134.5 99.0627 135.3C99.4794 136.083 100.063 136.708 100.813 137.175C101.579 137.625 102.479 137.85 103.513 137.85C104.313 137.85 105.029 137.683 105.663 137.35C106.296 137.017 106.804 136.592 107.188 136.075C107.371 135.925 107.546 135.85 107.713 135.85C107.879 135.85 108.029 135.917 108.163 136.05C108.296 136.183 108.363 136.333 108.363 136.5C108.363 136.683 108.279 136.858 108.113 137.025C107.579 137.675 106.904 138.208 106.088 138.625C105.288 139.042 104.438 139.25 103.538 139.25C102.254 139.25 101.121 138.975 100.138 138.425C99.1544 137.875 98.3877 137.108 97.8377 136.125C97.2877 135.125 97.0127 133.975 97.0127 132.675C97.0127 131.308 97.2794 130.117 97.8127 129.1C98.3627 128.067 99.0877 127.283 99.9877 126.75C100.888 126.2 101.846 125.925 102.863 125.925C103.863 125.925 104.796 126.158 105.663 126.625C106.546 127.092 107.263 127.775 107.813 128.675C108.363 129.575 108.646 130.642 108.663 131.875ZM102.863 127.375C101.896 127.375 100.996 127.708 100.163 128.375C99.346 129.042 98.821 130 98.5877 131.25H107.113V131.05C107.029 130.3 106.779 129.65 106.363 129.1C105.946 128.533 105.421 128.108 104.788 127.825C104.171 127.525 103.529 127.375 102.863 127.375Z" fill="white"/>
<defs>
<filter id="filter0_d" x="33" y="0" width="79" height="79" filterUnits="userSpaceOnUse" color-interpolation-filters="sRGB">
<feFlood flood-opacity="0" result="BackgroundImageFix"/>
<feColorMatrix in="SourceAlpha" type="matrix" values="0 0 0 0 0 0 0 0 0 0 0 0 0 0 0 0 0 0 127 0"/>
<feOffset dy="4"/>
<feGaussianBlur stdDeviation="2"/>
<feColorMatrix type="matrix" values="0 0 0 0 0 0 0 0 0 0 0 0 0 0 0 0 0 0 0.25 0"/>
<feBlend mode="normal" in2="BackgroundImageFix" result="effect1_dropShadow"/>
<feBlend mode="normal" in="SourceGraphic" in2="effect1_dropShadow" result="shape"/>
</filter>
<filter id="filter1_d" x="0.554108" y="62.5762" width="145.376" height="98.4239" filterUnits="userSpaceOnUse" color-interpolation-filters="sRGB">
<feFlood flood-opacity="0" result="BackgroundImageFix"/>
<feColorMatrix in="SourceAlpha" type="matrix" values="0 0 0 0 0 0 0 0 0 0 0 0 0 0 0 0 0 0 127 0"/>
<feOffset dy="4"/>
<feGaussianBlur stdDeviation="2"/>
<feColorMatrix type="matrix" values="0 0 0 0 0 0 0 0 0 0 0 0 0 0 0 0 0 0 0.25 0"/>
<feBlend mode="normal" in2="BackgroundImageFix" result="effect1_dropShadow"/>
<feBlend mode="normal" in="SourceGraphic" in2="effect1_dropShadow" result="shape"/>
</filter>
</defs>
</svg>
